<mxfile host="app.diagrams.net" agent="Mozilla/5.0 (Windows NT 10.0; Win64; x64) AppleWebKit/537.36 (KHTML, like Gecko) Chrome/131.0.0.0 Safari/537.36" version="26.0.7">
  <diagram name="Page-1" id="7D6joFRQQGXDdCeOiKhz">
    <mxGraphModel dx="2322" dy="425" grid="1" gridSize="10" guides="1" tooltips="1" connect="1" arrows="1" fold="1" page="1" pageScale="1" pageWidth="1700" pageHeight="1100" math="0" shadow="0">
      <root>
        <mxCell id="0" />
        <mxCell id="1" parent="0" />
        <mxCell id="nkMJnMaPb9Wci51dgdpY-3" value="Router (Mikrotik-0)" style="fontColor=#0066CC;verticalAlign=top;verticalLabelPosition=bottom;labelPosition=center;align=center;html=1;outlineConnect=0;fillColor=#CCCCCC;strokeColor=#6881B3;gradientColor=none;gradientDirection=north;strokeWidth=2;shape=mxgraph.networks.router;" vertex="1" parent="1">
          <mxGeometry x="-670" y="180" width="100" height="30" as="geometry" />
        </mxCell>
        <mxCell id="nkMJnMaPb9Wci51dgdpY-52" style="edgeStyle=orthogonalEdgeStyle;rounded=0;orthogonalLoop=1;jettySize=auto;html=1;exitX=0.1;exitY=1;exitDx=0;exitDy=0;exitPerimeter=0;" edge="1" parent="1" source="nkMJnMaPb9Wci51dgdpY-4" target="nkMJnMaPb9Wci51dgdpY-48">
          <mxGeometry relative="1" as="geometry" />
        </mxCell>
        <mxCell id="nkMJnMaPb9Wci51dgdpY-53" style="edgeStyle=orthogonalEdgeStyle;rounded=0;orthogonalLoop=1;jettySize=auto;html=1;exitX=0.1;exitY=1;exitDx=0;exitDy=0;exitPerimeter=0;" edge="1" parent="1" source="nkMJnMaPb9Wci51dgdpY-4" target="nkMJnMaPb9Wci51dgdpY-49">
          <mxGeometry relative="1" as="geometry">
            <Array as="points">
              <mxPoint x="-650" y="370" />
              <mxPoint x="-650" y="475" />
              <mxPoint x="-720" y="475" />
            </Array>
          </mxGeometry>
        </mxCell>
        <mxCell id="nkMJnMaPb9Wci51dgdpY-4" value="Router (Mikrotik-2)" style="fontColor=#0066CC;verticalAlign=top;verticalLabelPosition=bottom;labelPosition=center;align=center;html=1;outlineConnect=0;fillColor=#CCCCCC;strokeColor=#6881B3;gradientColor=none;gradientDirection=north;strokeWidth=2;shape=mxgraph.networks.router;" vertex="1" parent="1">
          <mxGeometry x="-670" y="340" width="100" height="30" as="geometry" />
        </mxCell>
        <mxCell id="nkMJnMaPb9Wci51dgdpY-7" value="" style="fontColor=#0066CC;verticalAlign=top;verticalLabelPosition=bottom;labelPosition=center;align=center;html=1;outlineConnect=0;fillColor=#CCCCCC;strokeColor=#6881B3;gradientColor=none;gradientDirection=north;strokeWidth=2;shape=mxgraph.networks.server;" vertex="1" parent="1">
          <mxGeometry x="-1085" y="400" width="90" height="100" as="geometry" />
        </mxCell>
        <mxCell id="nkMJnMaPb9Wci51dgdpY-22" style="edgeStyle=orthogonalEdgeStyle;rounded=0;orthogonalLoop=1;jettySize=auto;html=1;exitX=0.5;exitY=1;exitDx=0;exitDy=0;exitPerimeter=0;" edge="1" parent="1" source="nkMJnMaPb9Wci51dgdpY-8" target="nkMJnMaPb9Wci51dgdpY-7">
          <mxGeometry relative="1" as="geometry" />
        </mxCell>
        <mxCell id="nkMJnMaPb9Wci51dgdpY-8" value="" style="fontColor=#0066CC;verticalAlign=top;verticalLabelPosition=bottom;labelPosition=center;align=center;html=1;outlineConnect=0;fillColor=#CCCCCC;strokeColor=#6881B3;gradientColor=none;gradientDirection=north;strokeWidth=2;shape=mxgraph.networks.router;" vertex="1" parent="1">
          <mxGeometry x="-1090" y="240" width="100" height="30" as="geometry" />
        </mxCell>
        <mxCell id="nkMJnMaPb9Wci51dgdpY-16" style="edgeStyle=orthogonalEdgeStyle;rounded=0;orthogonalLoop=1;jettySize=auto;html=1;exitX=0.5;exitY=1;exitDx=0;exitDy=0;exitPerimeter=0;entryX=0.5;entryY=0;entryDx=0;entryDy=0;entryPerimeter=0;" edge="1" parent="1" source="nkMJnMaPb9Wci51dgdpY-3" target="nkMJnMaPb9Wci51dgdpY-4">
          <mxGeometry relative="1" as="geometry" />
        </mxCell>
        <mxCell id="nkMJnMaPb9Wci51dgdpY-21" style="edgeStyle=orthogonalEdgeStyle;rounded=0;orthogonalLoop=1;jettySize=auto;html=1;exitX=1;exitY=0.5;exitDx=0;exitDy=0;exitPerimeter=0;entryX=0;entryY=0.5;entryDx=0;entryDy=0;entryPerimeter=0;strokeColor=default;" edge="1" parent="1" source="nkMJnMaPb9Wci51dgdpY-8" target="nkMJnMaPb9Wci51dgdpY-4">
          <mxGeometry relative="1" as="geometry" />
        </mxCell>
        <mxCell id="nkMJnMaPb9Wci51dgdpY-26" value="&lt;font style=&quot;forced-color-adjust: none; font-family: Helvetica; font-style: normal; font-variant-ligatures: normal; font-variant-caps: normal; font-weight: 400; letter-spacing: normal; orphans: 2; text-align: center; text-indent: 0px; text-transform: none; widows: 2; word-spacing: 0px; -webkit-text-stroke-width: 0px; white-space: nowrap; text-decoration-thickness: initial; text-decoration-style: initial; text-decoration-color: initial; line-height: 10%; font-size: 8px;&quot; color=&quot;#039dfc&quot;&gt;&lt;br class=&quot;Apple-interchange-newline&quot;&gt;&amp;nbsp;INTERNET/ISP&lt;/font&gt;&lt;div style=&quot;forced-color-adjust: none; color: rgb(255, 255, 255); font-family: Helvetica; font-style: normal; font-variant-ligatures: normal; font-variant-caps: normal; font-weight: 400; letter-spacing: normal; orphans: 2; text-align: center; text-indent: 0px; text-transform: none; widows: 2; word-spacing: 0px; -webkit-text-stroke-width: 0px; white-space: nowrap; text-decoration-thickness: initial; text-decoration-style: initial; text-decoration-color: initial; line-height: 10%;&quot;&gt;&lt;font style=&quot;forced-color-adjust: none; line-height: 10%; font-size: 8px;&quot; color=&quot;#039dfc&quot;&gt;&lt;span style=&quot;forced-color-adjust: none;&quot;&gt;BROADBAND&lt;/span&gt;&lt;/font&gt;&lt;/div&gt;" style="html=1;outlineConnect=0;fillColor=#CCCCCC;strokeColor=#6881B3;gradientColor=none;gradientDirection=north;strokeWidth=2;shape=mxgraph.networks.cloud;fontColor=#ffffff;labelBackgroundColor=none;" vertex="1" parent="1">
          <mxGeometry x="-550" y="60" width="90" height="50" as="geometry" />
        </mxCell>
        <mxCell id="nkMJnMaPb9Wci51dgdpY-27" style="edgeStyle=orthogonalEdgeStyle;rounded=0;orthogonalLoop=1;jettySize=auto;html=1;exitX=0.5;exitY=1;exitDx=0;exitDy=0;exitPerimeter=0;entryX=0.95;entryY=0.05;entryDx=0;entryDy=0;entryPerimeter=0;" edge="1" parent="1" source="nkMJnMaPb9Wci51dgdpY-26" target="nkMJnMaPb9Wci51dgdpY-3">
          <mxGeometry relative="1" as="geometry" />
        </mxCell>
        <mxCell id="nkMJnMaPb9Wci51dgdpY-28" value="&lt;div&gt;&lt;font style=&quot;line-height: 0%; font-size: 8px;&quot; color=&quot;#039dfc&quot;&gt;&lt;br&gt;&lt;/font&gt;&lt;/div&gt;&lt;font style=&quot;line-height: 0%; font-size: 8px;&quot; color=&quot;#039dfc&quot;&gt;&amp;nbsp;INTERNET/ISP&lt;/font&gt;&lt;div style=&quot;line-height: 0%;&quot;&gt;&lt;font style=&quot;font-size: 8px;&quot; color=&quot;#039dfc&quot;&gt;BROADBAND&lt;/font&gt;&lt;/div&gt;" style="html=1;outlineConnect=0;fillColor=#CCCCCC;strokeColor=#6881B3;gradientColor=none;gradientDirection=north;strokeWidth=2;shape=mxgraph.networks.cloud;fontColor=#ffffff;" vertex="1" parent="1">
          <mxGeometry x="-790" y="60" width="90" height="50" as="geometry" />
        </mxCell>
        <mxCell id="nkMJnMaPb9Wci51dgdpY-29" style="edgeStyle=orthogonalEdgeStyle;rounded=0;orthogonalLoop=1;jettySize=auto;html=1;exitX=0.5;exitY=1;exitDx=0;exitDy=0;exitPerimeter=0;entryX=0.05;entryY=0.05;entryDx=0;entryDy=0;entryPerimeter=0;" edge="1" parent="1" source="nkMJnMaPb9Wci51dgdpY-28" target="nkMJnMaPb9Wci51dgdpY-3">
          <mxGeometry relative="1" as="geometry" />
        </mxCell>
        <mxCell id="nkMJnMaPb9Wci51dgdpY-31" style="edgeStyle=orthogonalEdgeStyle;rounded=0;orthogonalLoop=1;jettySize=auto;html=1;exitX=0.5;exitY=1;exitDx=0;exitDy=0;exitPerimeter=0;" edge="1" parent="1" source="nkMJnMaPb9Wci51dgdpY-30" target="nkMJnMaPb9Wci51dgdpY-8">
          <mxGeometry relative="1" as="geometry" />
        </mxCell>
        <mxCell id="nkMJnMaPb9Wci51dgdpY-30" value="&lt;div&gt;&lt;font style=&quot;font-size: 8px; line-height: 0%; color: light-dark(rgb(0, 157, 255), rgb(237, 237, 237));&quot;&gt;&lt;br&gt;&lt;/font&gt;&lt;/div&gt;&lt;font style=&quot;font-size: 8px; line-height: 20%; color: light-dark(rgb(0, 157, 255), rgb(237, 237, 237));&quot;&gt;INTERNET/ISP&lt;/font&gt;&lt;div style=&quot;line-height: 20%;&quot;&gt;&lt;font style=&quot;font-size: 8px; line-height: 20%; color: light-dark(rgb(0, 157, 255), rgb(237, 237, 237));&quot;&gt;DEDICATED&lt;/font&gt;&lt;/div&gt;" style="html=1;outlineConnect=0;fillColor=#CCCCCC;strokeColor=#6881B3;gradientColor=none;gradientDirection=north;strokeWidth=2;shape=mxgraph.networks.cloud;fontColor=#ffffff;" vertex="1" parent="1">
          <mxGeometry x="-1085" y="60" width="90" height="50" as="geometry" />
        </mxCell>
        <mxCell id="nkMJnMaPb9Wci51dgdpY-34" style="edgeStyle=orthogonalEdgeStyle;rounded=0;orthogonalLoop=1;jettySize=auto;html=1;exitX=0.5;exitY=1;exitDx=0;exitDy=0;exitPerimeter=0;" edge="1" parent="1" source="nkMJnMaPb9Wci51dgdpY-32" target="nkMJnMaPb9Wci51dgdpY-33">
          <mxGeometry relative="1" as="geometry" />
        </mxCell>
        <mxCell id="nkMJnMaPb9Wci51dgdpY-32" value="" style="fontColor=#0066CC;verticalAlign=top;verticalLabelPosition=bottom;labelPosition=center;align=center;html=1;outlineConnect=0;fillColor=#CCCCCC;strokeColor=#6881B3;gradientColor=none;gradientDirection=north;strokeWidth=2;shape=mxgraph.networks.wireless_hub;" vertex="1" parent="1">
          <mxGeometry x="-360" y="170" width="100" height="85" as="geometry" />
        </mxCell>
        <mxCell id="nkMJnMaPb9Wci51dgdpY-35" style="edgeStyle=orthogonalEdgeStyle;rounded=0;orthogonalLoop=1;jettySize=auto;html=1;exitX=0;exitY=0.5;exitDx=0;exitDy=0;exitPerimeter=0;" edge="1" parent="1" source="nkMJnMaPb9Wci51dgdpY-33" target="nkMJnMaPb9Wci51dgdpY-4">
          <mxGeometry relative="1" as="geometry" />
        </mxCell>
        <mxCell id="nkMJnMaPb9Wci51dgdpY-33" value="" style="fontColor=#0066CC;verticalAlign=top;verticalLabelPosition=bottom;labelPosition=center;align=center;html=1;outlineConnect=0;fillColor=#CCCCCC;strokeColor=#6881B3;gradientColor=none;gradientDirection=north;strokeWidth=2;shape=mxgraph.networks.router;" vertex="1" parent="1">
          <mxGeometry x="-410" y="380" width="100" height="30" as="geometry" />
        </mxCell>
        <mxCell id="nkMJnMaPb9Wci51dgdpY-36" value="" style="fontColor=#0066CC;verticalAlign=top;verticalLabelPosition=bottom;labelPosition=center;align=center;html=1;outlineConnect=0;fillColor=#CCCCCC;strokeColor=#6881B3;gradientColor=none;gradientDirection=north;strokeWidth=2;shape=mxgraph.networks.router;" vertex="1" parent="1">
          <mxGeometry x="-430" y="460" width="100" height="30" as="geometry" />
        </mxCell>
        <mxCell id="nkMJnMaPb9Wci51dgdpY-37" value="" style="fontColor=#0066CC;verticalAlign=top;verticalLabelPosition=bottom;labelPosition=center;align=center;html=1;outlineConnect=0;fillColor=#CCCCCC;strokeColor=#6881B3;gradientColor=none;gradientDirection=north;strokeWidth=2;shape=mxgraph.networks.router;" vertex="1" parent="1">
          <mxGeometry x="-440" y="550" width="100" height="30" as="geometry" />
        </mxCell>
        <mxCell id="nkMJnMaPb9Wci51dgdpY-47" style="edgeStyle=orthogonalEdgeStyle;rounded=0;orthogonalLoop=1;jettySize=auto;html=1;exitX=0.1;exitY=1;exitDx=0;exitDy=0;exitPerimeter=0;" edge="1" parent="1" source="nkMJnMaPb9Wci51dgdpY-38" target="nkMJnMaPb9Wci51dgdpY-42">
          <mxGeometry relative="1" as="geometry" />
        </mxCell>
        <mxCell id="nkMJnMaPb9Wci51dgdpY-38" value="" style="fontColor=#0066CC;verticalAlign=top;verticalLabelPosition=bottom;labelPosition=center;align=center;html=1;outlineConnect=0;fillColor=#CCCCCC;strokeColor=#6881B3;gradientColor=none;gradientDirection=north;strokeWidth=2;shape=mxgraph.networks.router;" vertex="1" parent="1">
          <mxGeometry x="-450" y="640" width="100" height="30" as="geometry" />
        </mxCell>
        <mxCell id="nkMJnMaPb9Wci51dgdpY-39" style="edgeStyle=orthogonalEdgeStyle;rounded=0;orthogonalLoop=1;jettySize=auto;html=1;exitX=0.9;exitY=1;exitDx=0;exitDy=0;exitPerimeter=0;entryX=0;entryY=0.5;entryDx=0;entryDy=0;entryPerimeter=0;" edge="1" parent="1" source="nkMJnMaPb9Wci51dgdpY-4" target="nkMJnMaPb9Wci51dgdpY-36">
          <mxGeometry relative="1" as="geometry" />
        </mxCell>
        <mxCell id="nkMJnMaPb9Wci51dgdpY-40" style="edgeStyle=orthogonalEdgeStyle;rounded=0;orthogonalLoop=1;jettySize=auto;html=1;exitX=0.9;exitY=1;exitDx=0;exitDy=0;exitPerimeter=0;entryX=0;entryY=0.5;entryDx=0;entryDy=0;entryPerimeter=0;" edge="1" parent="1" source="nkMJnMaPb9Wci51dgdpY-4" target="nkMJnMaPb9Wci51dgdpY-37">
          <mxGeometry relative="1" as="geometry">
            <Array as="points">
              <mxPoint x="-590" y="370" />
              <mxPoint x="-590" y="565" />
            </Array>
          </mxGeometry>
        </mxCell>
        <mxCell id="nkMJnMaPb9Wci51dgdpY-41" style="edgeStyle=orthogonalEdgeStyle;rounded=0;orthogonalLoop=1;jettySize=auto;html=1;exitX=0.9;exitY=1;exitDx=0;exitDy=0;exitPerimeter=0;entryX=0;entryY=0.5;entryDx=0;entryDy=0;entryPerimeter=0;" edge="1" parent="1" source="nkMJnMaPb9Wci51dgdpY-4" target="nkMJnMaPb9Wci51dgdpY-38">
          <mxGeometry relative="1" as="geometry">
            <Array as="points">
              <mxPoint x="-600" y="370" />
              <mxPoint x="-600" y="655" />
            </Array>
          </mxGeometry>
        </mxCell>
        <mxCell id="nkMJnMaPb9Wci51dgdpY-42" value="" style="fontColor=#0066CC;verticalAlign=top;verticalLabelPosition=bottom;labelPosition=center;align=center;html=1;outlineConnect=0;fillColor=#CCCCCC;strokeColor=#6881B3;gradientColor=none;gradientDirection=north;strokeWidth=2;shape=mxgraph.networks.wireless_hub;" vertex="1" parent="1">
          <mxGeometry x="-570" y="730" width="100" height="85" as="geometry" />
        </mxCell>
        <mxCell id="nkMJnMaPb9Wci51dgdpY-43" value="" style="fontColor=#0066CC;verticalAlign=top;verticalLabelPosition=bottom;labelPosition=center;align=center;html=1;outlineConnect=0;fillColor=#CCCCCC;strokeColor=#6881B3;gradientColor=none;gradientDirection=north;strokeWidth=2;shape=mxgraph.networks.wireless_hub;" vertex="1" parent="1">
          <mxGeometry x="-430" y="730" width="100" height="85" as="geometry" />
        </mxCell>
        <mxCell id="nkMJnMaPb9Wci51dgdpY-44" value="" style="fontColor=#0066CC;verticalAlign=top;verticalLabelPosition=bottom;labelPosition=center;align=center;html=1;outlineConnect=0;fillColor=#CCCCCC;strokeColor=#6881B3;gradientColor=none;gradientDirection=north;strokeWidth=2;shape=mxgraph.networks.wireless_hub;" vertex="1" parent="1">
          <mxGeometry x="-420" y="830" width="100" height="85" as="geometry" />
        </mxCell>
        <mxCell id="nkMJnMaPb9Wci51dgdpY-45" style="edgeStyle=orthogonalEdgeStyle;rounded=0;orthogonalLoop=1;jettySize=auto;html=1;exitX=1;exitY=0.5;exitDx=0;exitDy=0;exitPerimeter=0;entryX=0.98;entryY=0.94;entryDx=0;entryDy=0;entryPerimeter=0;" edge="1" parent="1" source="nkMJnMaPb9Wci51dgdpY-36" target="nkMJnMaPb9Wci51dgdpY-44">
          <mxGeometry relative="1" as="geometry">
            <Array as="points">
              <mxPoint x="-250" y="475" />
              <mxPoint x="-250" y="920" />
              <mxPoint x="-322" y="920" />
            </Array>
          </mxGeometry>
        </mxCell>
        <mxCell id="nkMJnMaPb9Wci51dgdpY-46" style="edgeStyle=orthogonalEdgeStyle;rounded=0;orthogonalLoop=1;jettySize=auto;html=1;exitX=1;exitY=0.5;exitDx=0;exitDy=0;exitPerimeter=0;entryX=1;entryY=0.7;entryDx=0;entryDy=0;entryPerimeter=0;" edge="1" parent="1" source="nkMJnMaPb9Wci51dgdpY-37" target="nkMJnMaPb9Wci51dgdpY-43">
          <mxGeometry relative="1" as="geometry" />
        </mxCell>
        <mxCell id="nkMJnMaPb9Wci51dgdpY-57" style="edgeStyle=orthogonalEdgeStyle;rounded=0;orthogonalLoop=1;jettySize=auto;html=1;exitX=0;exitY=0.5;exitDx=0;exitDy=0;exitPerimeter=0;" edge="1" parent="1" source="nkMJnMaPb9Wci51dgdpY-48" target="nkMJnMaPb9Wci51dgdpY-56">
          <mxGeometry relative="1" as="geometry" />
        </mxCell>
        <mxCell id="nkMJnMaPb9Wci51dgdpY-48" value="" style="fontColor=#0066CC;verticalAlign=top;verticalLabelPosition=bottom;labelPosition=center;align=center;html=1;outlineConnect=0;fillColor=#CCCCCC;strokeColor=#6881B3;gradientColor=none;gradientDirection=north;strokeWidth=2;shape=mxgraph.networks.switch;" vertex="1" parent="1">
          <mxGeometry x="-920" y="520" width="100" height="30" as="geometry" />
        </mxCell>
        <mxCell id="nkMJnMaPb9Wci51dgdpY-49" value="" style="fontColor=#0066CC;verticalAlign=top;verticalLabelPosition=bottom;labelPosition=center;align=center;html=1;outlineConnect=0;fillColor=#CCCCCC;strokeColor=#6881B3;gradientColor=none;gradientDirection=north;strokeWidth=2;shape=mxgraph.networks.switch;" vertex="1" parent="1">
          <mxGeometry x="-770" y="590" width="100" height="30" as="geometry" />
        </mxCell>
        <mxCell id="nkMJnMaPb9Wci51dgdpY-50" value="" style="fontColor=#0066CC;verticalAlign=top;verticalLabelPosition=bottom;labelPosition=center;align=center;html=1;outlineConnect=0;fillColor=#CCCCCC;strokeColor=#6881B3;gradientColor=none;gradientDirection=north;strokeWidth=2;shape=mxgraph.networks.switch;" vertex="1" parent="1">
          <mxGeometry x="-920" y="630" width="100" height="30" as="geometry" />
        </mxCell>
        <mxCell id="nkMJnMaPb9Wci51dgdpY-55" style="edgeStyle=orthogonalEdgeStyle;rounded=0;orthogonalLoop=1;jettySize=auto;html=1;exitX=0.5;exitY=1;exitDx=0;exitDy=0;exitPerimeter=0;entryX=0.5;entryY=0;entryDx=0;entryDy=0;entryPerimeter=0;" edge="1" parent="1" source="nkMJnMaPb9Wci51dgdpY-48" target="nkMJnMaPb9Wci51dgdpY-50">
          <mxGeometry relative="1" as="geometry" />
        </mxCell>
        <mxCell id="nkMJnMaPb9Wci51dgdpY-56" value="" style="fontColor=#0066CC;verticalAlign=top;verticalLabelPosition=bottom;labelPosition=center;align=center;html=1;outlineConnect=0;fillColor=#CCCCCC;strokeColor=#6881B3;gradientColor=none;gradientDirection=north;strokeWidth=2;shape=mxgraph.networks.wireless_hub;" vertex="1" parent="1">
          <mxGeometry x="-1090" y="576" width="100" height="85" as="geometry" />
        </mxCell>
        <mxCell id="nkMJnMaPb9Wci51dgdpY-59" style="edgeStyle=orthogonalEdgeStyle;rounded=0;orthogonalLoop=1;jettySize=auto;html=1;exitX=0.5;exitY=1;exitDx=0;exitDy=0;exitPerimeter=0;entryX=0.5;entryY=0;entryDx=0;entryDy=0;entryPerimeter=0;" edge="1" parent="1" source="nkMJnMaPb9Wci51dgdpY-49">
          <mxGeometry relative="1" as="geometry">
            <mxPoint x="-720" y="740" as="targetPoint" />
          </mxGeometry>
        </mxCell>
        <mxCell id="nkMJnMaPb9Wci51dgdpY-63" style="edgeStyle=orthogonalEdgeStyle;rounded=0;orthogonalLoop=1;jettySize=auto;html=1;exitX=0.5;exitY=1;exitDx=0;exitDy=0;exitPerimeter=0;" edge="1" parent="1" source="nkMJnMaPb9Wci51dgdpY-60" target="nkMJnMaPb9Wci51dgdpY-62">
          <mxGeometry relative="1" as="geometry" />
        </mxCell>
        <mxCell id="nkMJnMaPb9Wci51dgdpY-66" style="edgeStyle=orthogonalEdgeStyle;rounded=0;orthogonalLoop=1;jettySize=auto;html=1;exitX=0;exitY=0.5;exitDx=0;exitDy=0;exitPerimeter=0;" edge="1" parent="1" source="nkMJnMaPb9Wci51dgdpY-60" target="nkMJnMaPb9Wci51dgdpY-65">
          <mxGeometry relative="1" as="geometry">
            <Array as="points">
              <mxPoint x="-770" y="750" />
              <mxPoint x="-1045" y="750" />
            </Array>
          </mxGeometry>
        </mxCell>
        <mxCell id="nkMJnMaPb9Wci51dgdpY-60" value="" style="fontColor=#0066CC;verticalAlign=top;verticalLabelPosition=bottom;labelPosition=center;align=center;html=1;outlineConnect=0;fillColor=#CCCCCC;strokeColor=#6881B3;gradientColor=none;gradientDirection=north;strokeWidth=2;shape=mxgraph.networks.router;" vertex="1" parent="1">
          <mxGeometry x="-770" y="740" width="100" height="30" as="geometry" />
        </mxCell>
        <mxCell id="nkMJnMaPb9Wci51dgdpY-61" value="" style="fontColor=#0066CC;verticalAlign=top;verticalLabelPosition=bottom;labelPosition=center;align=center;html=1;outlineConnect=0;fillColor=#CCCCCC;strokeColor=#6881B3;gradientColor=none;gradientDirection=north;strokeWidth=2;shape=mxgraph.networks.modem;" vertex="1" parent="1">
          <mxGeometry x="-910" y="885" width="100" height="30" as="geometry" />
        </mxCell>
        <mxCell id="nkMJnMaPb9Wci51dgdpY-62" value="" style="fontColor=#0066CC;verticalAlign=top;verticalLabelPosition=bottom;labelPosition=center;align=center;html=1;outlineConnect=0;fillColor=#CCCCCC;strokeColor=#6881B3;gradientColor=none;gradientDirection=north;strokeWidth=2;shape=mxgraph.networks.modem;" vertex="1" parent="1">
          <mxGeometry x="-770" y="885" width="100" height="30" as="geometry" />
        </mxCell>
        <mxCell id="nkMJnMaPb9Wci51dgdpY-64" style="edgeStyle=orthogonalEdgeStyle;rounded=0;orthogonalLoop=1;jettySize=auto;html=1;exitX=0;exitY=0.5;exitDx=0;exitDy=0;exitPerimeter=0;entryX=0.5;entryY=0.133;entryDx=0;entryDy=0;entryPerimeter=0;" edge="1" parent="1" source="nkMJnMaPb9Wci51dgdpY-60" target="nkMJnMaPb9Wci51dgdpY-61">
          <mxGeometry relative="1" as="geometry">
            <Array as="points">
              <mxPoint x="-770" y="760" />
              <mxPoint x="-860" y="760" />
            </Array>
          </mxGeometry>
        </mxCell>
        <mxCell id="nkMJnMaPb9Wci51dgdpY-65" value="" style="fontColor=#0066CC;verticalAlign=top;verticalLabelPosition=bottom;labelPosition=center;align=center;html=1;outlineConnect=0;fillColor=#CCCCCC;strokeColor=#6881B3;gradientColor=none;gradientDirection=north;strokeWidth=2;shape=mxgraph.networks.modem;" vertex="1" parent="1">
          <mxGeometry x="-1095" y="886" width="100" height="30" as="geometry" />
        </mxCell>
        <mxCell id="nkMJnMaPb9Wci51dgdpY-68" style="edgeStyle=orthogonalEdgeStyle;rounded=0;orthogonalLoop=1;jettySize=auto;html=1;exitX=1;exitY=0.5;exitDx=0;exitDy=0;exitPerimeter=0;" edge="1" parent="1" source="nkMJnMaPb9Wci51dgdpY-67" target="nkMJnMaPb9Wci51dgdpY-65">
          <mxGeometry relative="1" as="geometry">
            <Array as="points">
              <mxPoint x="-1280" y="900" />
            </Array>
          </mxGeometry>
        </mxCell>
        <mxCell id="nkMJnMaPb9Wci51dgdpY-70" style="edgeStyle=orthogonalEdgeStyle;rounded=0;orthogonalLoop=1;jettySize=auto;html=1;exitX=0.5;exitY=0;exitDx=0;exitDy=0;exitPerimeter=0;" edge="1" parent="1" source="nkMJnMaPb9Wci51dgdpY-67" target="nkMJnMaPb9Wci51dgdpY-69">
          <mxGeometry relative="1" as="geometry" />
        </mxCell>
        <mxCell id="nkMJnMaPb9Wci51dgdpY-67" value="" style="fontColor=#0066CC;verticalAlign=top;verticalLabelPosition=bottom;labelPosition=center;align=center;html=1;outlineConnect=0;fillColor=#CCCCCC;strokeColor=#6881B3;gradientColor=none;gradientDirection=north;strokeWidth=2;shape=mxgraph.networks.storage;" vertex="1" parent="1">
          <mxGeometry x="-1380" y="822.5" width="100" height="100" as="geometry" />
        </mxCell>
        <mxCell id="nkMJnMaPb9Wci51dgdpY-69" value="" style="fontColor=#0066CC;verticalAlign=top;verticalLabelPosition=bottom;labelPosition=center;align=center;html=1;outlineConnect=0;fillColor=#CCCCCC;strokeColor=#6881B3;gradientColor=none;gradientDirection=north;strokeWidth=2;shape=mxgraph.networks.server;" vertex="1" parent="1">
          <mxGeometry x="-1375" y="60" width="90" height="100" as="geometry" />
        </mxCell>
      </root>
    </mxGraphModel>
  </diagram>
</mxfile>
